<svg width="21" height="18" viewBox="0 0 21 18" fill="none" xmlns="http://www.w3.org/2000/svg">
<path d="M20.0237 3.14292H6.92846M4.5475 3.14292H0.976074M20.0237 15.0477H6.92846M4.5475 15.0477H0.976074M14.0713 9.0953H0.976074M20.0237 9.0953H16.4523M5.73798 0.761963C6.05371 0.761963 6.35652 0.887388 6.57977 1.11065C6.80303 1.3339 6.92846 1.63671 6.92846 1.95244V4.33339C6.92846 4.64913 6.80303 4.95193 6.57977 5.17518C6.35652 5.39844 6.05371 5.52387 5.73798 5.52387C5.42225 5.52387 5.11944 5.39844 4.89619 5.17518C4.67293 4.95193 4.5475 4.64913 4.5475 4.33339V1.95244C4.5475 1.63671 4.67293 1.3339 4.89619 1.11065C5.11944 0.887388 5.42225 0.761963 5.73798 0.761963V0.761963ZM5.73798 12.6667C6.05371 12.6667 6.35652 12.7921 6.57977 13.0154C6.80303 13.2387 6.92846 13.5415 6.92846 13.8572V16.2382C6.92846 16.5539 6.80303 16.8567 6.57977 17.0799C6.35652 17.3032 6.05371 17.4286 5.73798 17.4286C5.42225 17.4286 5.11944 17.3032 4.89619 17.0799C4.67293 16.8567 4.5475 16.5539 4.5475 16.2382V13.8572C4.5475 13.5415 4.67293 13.2387 4.89619 13.0154C5.11944 12.7921 5.42225 12.6667 5.73798 12.6667ZM15.2618 6.71434C15.5775 6.71434 15.8803 6.83977 16.1036 7.06303C16.3268 7.28628 16.4523 7.58909 16.4523 7.90482V10.2858C16.4523 10.6015 16.3268 10.9043 16.1036 11.1276C15.8803 11.3508 15.5775 11.4762 15.2618 11.4762C14.9461 11.4762 14.6433 11.3508 14.42 11.1276C14.1967 10.9043 14.0713 10.6015 14.0713 10.2858V7.90482C14.0713 7.58909 14.1967 7.28628 14.42 7.06303C14.6433 6.83977 14.9461 6.71434 15.2618 6.71434V6.71434Z" stroke="black" stroke-linecap="round" stroke-linejoin="round"/>
</svg>
