<svg width="18" height="18" viewBox="0 0 18 18" fill="none" xmlns="http://www.w3.org/2000/svg">
<path d="M13.6668 17.1667C12.7386 17.1667 11.8483 16.798 11.192 16.1416C10.5356 15.4852 10.1668 14.595 10.1668 13.6667C10.1668 12.7385 10.5356 11.8482 11.192 11.1918C11.8483 10.5355 12.7386 10.1667 13.6668 10.1667C14.5951 10.1667 15.4853 10.5355 16.1417 11.1918C16.7981 11.8482 17.1668 12.7385 17.1668 13.6667C17.1668 14.595 16.7981 15.4852 16.1417 16.1416C15.4853 16.798 14.5951 17.1667 13.6668 17.1667ZM4.3335 17.1667C3.40524 17.1667 2.515 16.798 1.85862 16.1416C1.20225 15.4852 0.833496 14.595 0.833496 13.6667C0.833496 12.7385 1.20225 11.8482 1.85862 11.1918C2.515 10.5355 3.40524 10.1667 4.3335 10.1667C5.26175 10.1667 6.15199 10.5355 6.80837 11.1918C7.46475 11.8482 7.8335 12.7385 7.8335 13.6667C7.8335 14.595 7.46475 15.4852 6.80837 16.1416C6.15199 16.798 5.26175 17.1667 4.3335 17.1667ZM13.6668 7.83337C12.7386 7.83337 11.8483 7.46463 11.192 6.80825C10.5356 6.15187 10.1668 5.26163 10.1668 4.33337C10.1668 3.40512 10.5356 2.51488 11.192 1.8585C11.8483 1.20212 12.7386 0.833374 13.6668 0.833374C14.5951 0.833374 15.4853 1.20212 16.1417 1.8585C16.7981 2.51488 17.1668 3.40512 17.1668 4.33337C17.1668 5.26163 16.7981 6.15187 16.1417 6.80825C15.4853 7.46463 14.5951 7.83337 13.6668 7.83337ZM4.3335 7.83337C3.40524 7.83337 2.515 7.46463 1.85862 6.80825C1.20225 6.15187 0.833496 5.26163 0.833496 4.33337C0.833496 3.40512 1.20225 2.51488 1.85862 1.8585C2.515 1.20212 3.40524 0.833374 4.3335 0.833374C5.26175 0.833374 6.15199 1.20212 6.80837 1.8585C7.46475 2.51488 7.8335 3.40512 7.8335 4.33337C7.8335 5.26163 7.46475 6.15187 6.80837 6.80825C6.15199 7.46463 5.26175 7.83337 4.3335 7.83337Z" fill="black"/>
</svg>
