<svg width="54" height="60" viewBox="0 0 54 60" fill="none" xmlns="http://www.w3.org/2000/svg">
<path d="M51.6935 23.9628C51.2992 10.6825 40.3741 0 26.9999 0C13.6257 0 2.70059 10.6825 2.30612 23.9628L0.529297 25.7396V37.7898L2.294 39.5545V47.7647C2.294 52.5652 6.19941 56.4706 10.9999 56.4706H13.1858C13.9142 58.5246 15.8758 60 18.1764 60H21.7058C24.0079 60 25.9705 58.5225 26.6978 56.4664C26.7986 56.4681 26.8997 56.4706 26.9999 56.4706C35.522 56.4706 42.6526 50.3981 44.2921 42.3529H48.9073L53.4705 37.7898V25.7396L51.6935 23.9628ZM26.9999 3.52941C37.4741 3.52941 46.1953 11.174 47.8806 21.1765H44.2921C42.6526 13.1313 35.522 7.05882 26.9999 7.05882C18.4778 7.05882 11.3472 13.1313 9.70765 21.1765H6.11918C7.80447 11.174 16.5257 3.52941 26.9999 3.52941V3.52941ZM40.6708 21.1765C34.9662 21.1594 30.9368 21.5068 27.6147 16.6506L26.0015 14.2926L24.6152 16.7907C22.5952 20.4306 19.8748 21.1765 16.4117 21.1765H13.3289C14.9001 15.0944 20.4337 10.5882 26.9999 10.5882C33.5661 10.5882 39.0997 15.0944 40.6708 21.1765V21.1765ZM9.35283 38.8235H6.55436L4.05871 36.3279V27.2015L6.55436 24.7059H9.35283V38.8235ZM5.82341 47.7647V42.3529H9.70424C10.3686 45.6441 11.9581 48.6652 14.3129 51.0916C13.8193 51.6191 13.4321 52.2467 13.1858 52.9412H10.9999C8.14553 52.9412 5.82341 50.6191 5.82341 47.7647V47.7647ZM21.7058 56.4706H18.1764C17.2032 56.4706 16.4117 55.6791 16.4117 54.7059C16.4117 53.7328 17.2032 52.9412 18.1764 52.9412H21.7058C22.6788 52.9412 23.4705 53.7328 23.4705 54.7059C23.4705 55.6791 22.6788 56.4706 21.7058 56.4706ZM41.1175 38.8235C41.1175 46.608 34.7844 52.9412 26.9999 52.9412C26.8987 52.9412 26.7967 52.9392 26.6948 52.9368C25.9652 50.8851 24.0047 49.4118 21.7058 49.4118C18.0822 49.4198 18.14 49.3936 17.6884 49.4352C14.6246 46.7498 12.8822 42.9248 12.8822 38.8235V24.7059H16.4117C19.5348 24.7059 23.3384 24.1909 26.2826 20.6076C30.1673 24.6786 34.9146 24.7059 39.1761 24.7059H41.1175V38.8235ZM49.9411 36.3279L47.4454 38.8235H44.6469V24.7059H47.4454L49.9411 27.2015V36.3279Z" fill="#242424"/>
</svg>
