<svg width="16" height="16" viewBox="0 0 16 16" fill="none" xmlns="http://www.w3.org/2000/svg">
<path d="M12 10.6667C11.4747 10.6667 11 10.8733 10.644 11.2047L5.94 8.46666C5.97333 8.31333 6 8.15999 6 7.99999C6 7.83999 5.97333 7.68666 5.94 7.53333L10.64 4.79333C11 5.12666 11.4733 5.33333 12 5.33333C13.1067 5.33333 14 4.43999 14 3.33333C14 2.22666 13.1067 1.33333 12 1.33333C10.8933 1.33333 10 2.22666 10 3.33333C10 3.49333 10.0267 3.64666 10.06 3.79999L5.36 6.53999C5 6.20666 4.52667 5.99999 4 5.99999C2.89333 5.99999 2 6.89333 2 7.99999C2 9.10666 2.89333 9.99999 4 9.99999C4.52667 9.99999 5 9.79333 5.36 9.45999L10.0587 12.2053C10.0211 12.3563 10.0014 12.5111 10 12.6667C10 13.0622 10.1173 13.4489 10.3371 13.7778C10.5568 14.1067 10.8692 14.363 11.2346 14.5144C11.6001 14.6658 12.0022 14.7054 12.3902 14.6282C12.7781 14.5511 13.1345 14.3606 13.4142 14.0809C13.6939 13.8012 13.8844 13.4448 13.9616 13.0568C14.0387 12.6689 13.9991 12.2667 13.8478 11.9013C13.6964 11.5358 13.44 11.2235 13.1111 11.0037C12.7822 10.784 12.3956 10.6667 12 10.6667V10.6667Z" fill="white"/>
</svg>
