<svg width="61" height="56" viewBox="0 0 61 56" fill="none" xmlns="http://www.w3.org/2000/svg">
<path d="M56.0144 29.102V1.7797C56.0144 0.804954 55.2242 0.0147095 54.2495 0.0147095H6.96161C5.98687 0.0147095 5.19662 0.804954 5.19662 1.7797V31.2801C4.34519 31.4041 3.51282 31.7346 2.77647 32.2813C0.455155 33.9273 -0.0938738 37.611 1.85056 39.8828L9.80042 49.5204C14.7214 55.2798 19.949 55.9855 27.7204 55.9855C34.3893 55.9855 37.3709 56.0149 43.183 54.6906L48.8425 53.3369C49.7601 54.6184 51.217 55.4486 52.8548 55.4486H55.6427C58.4128 55.4486 60.6665 53.0744 60.6665 50.1562V34.3785C60.6666 31.592 58.6114 29.3032 56.0144 29.102ZM48.0812 32.7327L45.7295 31.5382C41.8629 29.5865 37.3924 29.5143 33.4647 31.3403C32.3931 31.7618 30.0559 33.1759 28.8436 33.1286H20.6832C17.9764 33.1286 15.7742 35.3307 15.7742 38.0376V39.3248C15.759 39.3088 15.7431 39.2936 15.7282 39.2774L9.90079 32.952C9.54815 32.5692 9.15197 32.249 8.72672 31.992V14.481H23.1706V20.951C23.1706 21.9258 23.9608 22.716 24.9356 22.716H36.0728C37.0475 22.716 37.8378 21.9258 37.8378 20.951V14.481H52.4846V29.1019C50.4224 29.2612 48.7028 30.7365 48.0812 32.7327ZM26.7004 14.481H34.3077V19.186H26.7004V14.481ZM52.4845 10.9511H37.8378V3.54469H52.4846V10.9511H52.4845ZM34.3078 3.54469V10.9512H26.7006V3.54469H34.3078ZM23.1705 3.54469V10.9512H8.7266V3.54469H23.1705ZM42.3638 51.2568C36.9947 52.4866 33.7611 52.4368 27.7837 52.4368C20.4884 52.4368 16.9635 52.3189 12.5237 47.2741L4.57382 37.6364C3.19101 35.8358 5.69565 33.7101 7.30461 35.3436L13.132 41.6691C14.6721 43.2941 16.6102 44.1885 18.999 44.2411H35.1554C36.1302 44.2411 36.9204 43.4509 36.9204 42.4761C36.9204 41.5014 36.1302 40.7111 35.1554 40.7111H19.3041V38.0374C19.3041 37.2771 19.9226 36.6584 20.6831 36.6584H28.8435C30.6819 36.79 33.3354 35.255 34.9528 34.5411C37.8945 33.1733 41.2428 33.2275 44.1349 34.6872L47.8312 36.5647V49.949L42.3638 51.2568ZM57.1366 50.1561C57.1366 51.1279 56.4665 51.9185 55.6428 51.9185H52.8549C52.0312 51.9185 51.3612 51.1279 51.3612 50.1561V34.3785C51.3612 33.4067 52.0313 32.616 52.8549 32.616H55.6428C56.4665 32.616 57.1366 33.4065 57.1366 34.3785V50.1561Z" fill="#242424"/>
</svg>
