<svg fill="none" height="24" viewBox="0 0 24 24" width="24" xmlns="http://www.w3.org/2000/svg"><path d="m4.8069 2c-.82689.00381-1.61125.3671-2.14893.99532-.4444.51924-.69591 1.18165-.6533 1.86377.26859 4.29915 2.04525 8.52121 5.33012 11.80611 3.28491 3.2849 7.50701 5.0615 11.80611 5.3301.6821.0426 1.3445-.2089 1.8638-.6533.6282-.5377.9915-1.322.9953-2.1489v-2.0142c0-.9175-.6242-1.7173-1.5142-1.9401l-3.1026-.777c-.5213-.1305-1.0731-.0458-1.5312.235l-2.3076 1.4147c-.3395.2082-.7713.1963-1.0844-.0497-.8024-.6303-1.7647-1.5036-2.3915-2.1303-.62672-.6268-1.50001-1.5891-2.13028-2.3915-.24601-.3131-.25789-.7449-.04975-1.0844l1.41468-2.30764c.28083-.45808.36553-1.0099.23502-1.53112l-.77693-3.10265c-.22286-.88998-1.02265-1.51419-1.9401-1.51419z" fill="#000"/></svg>