<svg width="61" height="60" viewBox="0 0 61 60" fill="none" xmlns="http://www.w3.org/2000/svg">
<path d="M57.1195 21.2612C56.3278 18.8096 56.6653 15.1296 54.6075 12.2881C52.5335 9.42431 48.9263 8.61033 46.8895 7.12064C44.8741 5.64666 42.9991 2.43912 39.609 1.33287C36.3145 0.257791 32.9456 1.71666 30.3335 1.71666C27.7217 1.71666 24.3531 0.257439 21.058 1.33275C17.6685 2.43877 15.7919 5.64701 13.7778 7.12029C11.7432 8.60822 8.13338 9.42443 6.05975 12.2878C4.00369 15.1269 4.33779 18.8154 3.54748 21.2611C2.79537 23.5888 0.333496 26.3824 0.333496 30.0002C0.333496 33.6203 2.79256 36.4031 3.54748 38.7392C4.3392 41.1908 4.0017 44.8708 6.05951 47.7123C8.13338 50.5762 11.7404 51.3901 13.7775 52.8799C15.7925 54.3536 17.6679 57.5614 21.058 58.6676C24.3503 59.7419 27.7244 58.2838 30.3335 58.2838C32.9389 58.2838 36.321 59.7404 39.609 58.6677C42.9987 57.5617 44.874 54.3541 46.8892 52.8801C48.9238 51.3922 52.5336 50.576 54.6072 47.7126C56.6634 44.8734 56.3291 41.1853 57.1195 38.7394C57.8716 36.4115 60.3335 33.6179 60.3335 30.0002C60.3335 26.3804 57.875 23.5984 57.1195 21.2612ZM52.6592 37.2979C51.7364 40.1544 51.9781 43.3512 50.811 44.9629C49.6281 46.5962 46.5204 47.3422 44.1224 49.0963C41.7506 50.8308 40.0883 53.5803 38.1549 54.2111C36.3259 54.8081 33.3451 53.596 30.3336 53.596C27.3001 53.596 24.35 54.8107 22.5122 54.2111C20.579 53.5803 18.9191 50.8326 16.5447 49.0962C14.1609 47.3528 11.0355 46.5914 9.85604 44.9627C8.6926 43.3563 8.92521 40.1374 8.00799 37.2981C7.10893 34.5162 5.021 32.1074 5.021 30.0002C5.021 27.891 7.10705 25.4905 8.00775 22.7025C8.9306 19.8461 8.68885 16.6492 9.85604 15.0375C11.0382 13.4053 14.1483 12.6568 16.5447 10.9042C18.924 9.16404 20.5759 6.42103 22.5119 5.78928C24.3395 5.19303 27.33 6.40439 30.3334 6.40439C33.3724 6.40439 36.3151 5.18892 38.1548 5.78928C40.0877 6.41998 41.7491 9.16873 44.1224 10.9043C46.5058 12.6477 49.6315 13.409 50.811 15.0376C51.9746 16.6444 51.7407 19.86 52.659 22.7022V22.7024C53.5581 25.4843 55.646 27.8931 55.646 30.0002C55.646 32.1095 53.5599 34.5099 52.6592 37.2979ZM41.1315 22.4774C42.0469 23.3927 42.0469 24.8767 41.1315 25.7919L29.4003 37.5231C28.485 38.4384 27.0009 38.4383 26.0857 37.5231L19.5356 30.973C18.6203 30.0576 18.6201 28.5737 19.5355 27.6585C20.4508 26.7432 21.935 26.7431 22.85 27.6585L27.7429 32.5513L37.8167 22.4775C38.7321 21.5621 40.2162 21.5621 41.1315 22.4774Z" fill="#242424"/>
</svg>
